<?xml version="1.0" encoding="UTF-8"?>
<svg version="1.1" xmlns="http://www.w3.org/2000/svg" width="700" height="691">
<path d="M0 0 C4.27582222 0.53057648 7.09005488 3.18602043 10.3125 5.8125 C10.92859131 6.30387451 11.54468262 6.79524902 12.17944336 7.30151367 C15.31558942 9.80765342 18.42339709 12.34620529 21.515625 14.90625 C41.29346783 31.17999293 63.05446257 43.80184543 86 55 C86.47566406 54.52691406 86.95132813 54.05382813 87.44140625 53.56640625 C121.40403469 21.48016612 178.20683814 10.80800498 223.16796875 11.71484375 C270.46955646 13.33285999 315.12983258 26.39198826 353 55 C368.87690087 46.75446268 384.44441999 38.46358335 399 28 C399.77102051 27.44989258 400.54204102 26.89978516 401.33642578 26.33300781 C410.82388695 19.53790838 420.08420761 12.53350386 428.92626953 4.91040039 C433.56975516 1 433.56975516 1 438 1 C437.38942593 28.80887335 423.30328422 53.64793031 408 76 C408.74161377 75.69707031 409.48322754 75.39414063 410.24731445 75.08203125 C413.60021127 73.71596814 416.95628876 72.35789848 420.3125 71 C421.47974609 70.52304688 422.64699219 70.04609375 423.84960938 69.5546875 C424.96787109 69.10351562 426.08613281 68.65234375 427.23828125 68.1875 C428.26993408 67.76855469 429.30158691 67.34960938 430.36450195 66.91796875 C433 66 433 66 436 66 C435.73874006 79.32425707 426.01001543 90.90857753 417 100 C403.16595745 113 403.16595745 113 398 113 C398.50789063 113.99257812 399.01578125 114.98515625 399.5390625 116.0078125 C413.26904793 143.00565214 422.61215833 171.74165255 413.390625 202.17578125 C405.84847177 223.99736935 390.53354985 240.767216 369.87011719 251.06103516 C357.6751586 256.65108063 345.14602475 260.37079505 332 263 C339.26 263.66 346.52 264.32 354 265 C352.92820322 269.2871871 351.68444255 270.87639646 348.9375 274.25 C324.46795629 305.97357312 319.47331067 351.12401406 323.61328125 389.87109375 C326.41821095 410.6766722 332.51611431 431.49641231 339.27294922 451.33154297 C340.50146152 455.00156181 341.30272227 458.1175869 341 462 C335.92049375 461.56629397 333.73954393 460.28666889 330.1875 456.6875 C322.32868323 449.25412294 314.90341599 447.10406529 304.18969727 446.75976562 C298.0780019 446.54585267 293.1130692 446.11177645 287.76953125 442.93359375 C281.47545263 439.61287677 274.52512973 441.0788485 267.99609375 442.93359375 C259.09582556 446.10148582 253.24695747 450.49272986 249 459 C247.42787664 462.60755459 246.14106039 466.23505196 245 470 C244.78472656 470.70511719 244.56945312 471.41023438 244.34765625 472.13671875 C242.21298524 480.31702737 241.60789783 489.82176184 242.24609375 498.25 C242 501 242 501 240.19921875 503.01953125 C239.37035156 503.61121094 238.54148437 504.20289063 237.6875 504.8125 C232.75857654 508.43217817 228.1460444 512.28735852 223.54296875 516.3125 C221 518 221 518 218.46875 518.5 C215.12977863 517.82375263 213.73733472 516.37273083 211.3125 514 C208.66648586 511.4256073 206.25335877 509.1602882 203.12890625 507.18359375 C200.18065616 505.31427773 198.11060439 503.79201546 196 501 C195.40310274 496.98328536 195.56499313 493.32580108 195.828125 489.29296875 C196.59111031 476.75210943 192.59678757 461.31736033 184.8125 451.5 C177.86448196 444.4022402 168.76741042 441.51407423 159 441 C154.27094902 441.35485987 151.03356461 442.23524844 147.19140625 445.078125 C143.34459351 447.39468787 141.25317593 447.35896607 136.8125 447.125 C125.8066734 446.86629301 117.61787475 447.75279272 109 455 C106.84164755 457.10165318 104.75422617 459.23301075 102.7265625 461.4609375 C101 463 101 463 98 463 C98.5660127 456.03304955 100.5147568 449.91225043 102.75 443.3125 C108.38138032 426.17674451 112.52249808 408.87187586 115 391 C115.09571289 390.33653564 115.19142578 389.67307129 115.29003906 388.98950195 C117.69514549 370.35854758 116.92775239 350.34821474 113 332 C112.74476563 330.79988281 112.48953125 329.59976562 112.2265625 328.36328125 C110.18853409 320.01484378 107.3729703 311.88650583 104.625 303.75 C104.26196777 302.66058105 103.89893555 301.57116211 103.52490234 300.44873047 C100.20796966 290.85076657 95.91588317 282.10497536 89.6875 274.0625 C87.14503405 270.77424404 86.02761105 269.1104442 85 265 C92.26 264.34 99.52 263.68 107 263 C105.40414062 262.6596875 103.80828125 262.319375 102.1640625 261.96875 C83.5764532 257.85551339 67.39403829 252.47801101 52 241 C51.11828125 240.36320313 50.2365625 239.72640625 49.328125 239.0703125 C33.38376346 227.03956697 25.36930886 209.35031047 22 190 C20.33313963 162.27493907 24.36436306 139.66699417 39 116 C39.33 115.34 39.66 114.68 40 114 C39.48953125 113.69449219 38.9790625 113.38898438 38.453125 113.07421875 C21.56754991 102.44588691 9.59681994 87.38140628 2 69 C2 67.68 2 66.36 2 65 C5.5382203 65.62341391 8.73293028 66.55321845 12.08203125 67.84765625 C13.47905273 68.38422852 13.47905273 68.38422852 14.90429688 68.93164062 C15.86400391 69.30482422 16.82371094 69.67800781 17.8125 70.0625 C18.79154297 70.43955078 19.77058594 70.81660156 20.77929688 71.20507812 C23.1876001 72.13315595 25.59441614 73.06490116 28 74 C27.58580811 73.39212646 27.17161621 72.78425293 26.74487305 72.15795898 C13.06736238 51.84161739 -1.53841519 25.24140486 0 0 Z M384.08300781 72.82910156 C383.27249466 73.23125381 382.46198151 73.63340607 381.62690735 74.04774475 C380.30338509 74.71247047 380.30338509 74.71247047 378.953125 75.390625 C378.03834885 75.84662582 377.12357269 76.30262665 376.18107605 76.77244568 C373.2015896 78.26010191 370.22553106 79.75444964 367.25 81.25 C365.73854904 82.00780258 365.73854904 82.00780258 364.19656372 82.78091431 C349.9736575 89.91547941 335.8373518 97.13806959 322 105 C320.32430406 105.93635061 318.64852107 106.87254543 316.97265625 107.80859375 C286.72068956 124.85199672 257.85627272 149.11352299 237 177 C235.97194238 178.34680337 234.94324229 179.69311645 233.9140625 181.0390625 C226.09395382 189.79272699 226.09395382 189.79272699 222 200 C220.68 200 219.36 200 218 200 C217.76152344 199.29875 217.52304687 198.5975 217.27734375 197.875 C207.38843585 175.61739691 181.39882033 152.22660993 163 137 C161.63101563 135.8553125 161.63101563 135.8553125 160.234375 134.6875 C130.72934272 110.51598098 96.07407891 93.13926593 61.9375 76.5625 C60.96167969 76.08345215 59.98585938 75.6044043 58.98046875 75.11083984 C58.0884375 74.68367676 57.19640625 74.25651367 56.27734375 73.81640625 C55.49609131 73.43943604 54.71483887 73.06246582 53.90991211 72.67407227 C53.27964111 72.45162842 52.64937012 72.22918457 52 72 C51.01 72.495 51.01 72.495 50 73 C64.18552559 91.26629322 79.68466815 107.1231121 99 120 C99.33 120.99 99.66 121.98 100 123 C99.11054688 123.24621094 98.22109375 123.49242187 97.3046875 123.74609375 C91.79139252 125.83801773 88.149442 129.91469157 84 134 C83.25878906 134.72832031 82.51757812 135.45664063 81.75390625 136.20703125 C76.64002225 141.57225926 73.64568466 147.10616314 71 154 C70.5875 155.0725 70.175 156.145 69.75 157.25 C65.37295122 173.29917886 68.93097749 188.04982535 76.88671875 202.21362305 C86.00460766 216.84423559 102.85234557 224.40735762 119.0390625 228.34375 C135.9288136 231.52179118 151.56074475 228.21220778 166 219 C174.31885348 213.0291082 181.20672173 204.94341736 183.4375 194.75 C184.02379469 190.80354324 184.17315596 186.982587 184 183 C190.18008138 186.53147508 194.55912407 189.51311807 197.265625 196.24609375 C199.6456241 205.17109036 198.7544623 213.23793336 194.19140625 221.20703125 C193 223 193 223 192 224 C191.42385508 242.51894396 203.34660659 261.48457425 215 275 C216.63153252 276.37610218 218.28926995 277.72369352 220 279 C232.65327454 264.60949309 244.14444868 247.44341687 247 228 C246.60530135 224.64012776 246.26337054 223.31434549 244.0625 220.6875 C239.77855245 215.10538652 239.24567927 207.8353063 240 201 C241.20787616 195.59541544 242.90158504 190.87072524 247 187 C249.30070425 185.77527166 251.53983834 184.89890522 254 184 C253.9175 185.27875 253.835 186.5575 253.75 187.875 C253.78228945 198.15919087 259.35502375 205.98028833 266.08203125 213.25 C277.92406777 224.87601264 292.79338928 229.44510329 309.06616211 229.43603516 C327.06245738 229.05184274 342.34991739 221.62777206 355 209 C355.57621094 208.43539062 356.15242188 207.87078125 356.74609375 207.2890625 C367.03897679 196.32781043 370.98165594 180.67524841 371 166 C369.69249853 150.02470935 360.67170877 137.31406209 349 127 C344.86617704 124.01494698 344.86617704 124.01494698 340 123 C340.14453125 121.25 340.14453125 121.25 341 119 C343.44921875 117.0625 343.44921875 117.0625 346.6875 115 C354.3466513 109.95141153 361.19932135 104.14104391 368 98 C368.75023437 97.32324219 369.50046875 96.64648438 370.2734375 95.94921875 C377.80995749 88.76645378 384.86021158 80.06720149 390 71 C387.53731659 71 386.28718153 71.72948162 384.08300781 72.82910156 Z " fill="#112E46" transform="translate(131,0)"/>
<path d="M0 0 C3.20821484 -0.3568255 6.15958644 -0.47100233 9.375 -0.4375 C10.40665283 -0.43137695 11.43830566 -0.42525391 12.5012207 -0.41894531 C43.36566417 0.14925941 74.35058176 4.55013787 105 8 C105.03867187 9.83111328 105.03867187 9.83111328 105.078125 11.69921875 C105.50450376 25.74682487 106.62342606 38.51732612 117 49 C122.11247585 53.74046618 128.16624543 57.38353277 135 59 C139.91550012 58.60042714 142.4151767 56.29071943 146.03515625 53.1796875 C148 52 148 52 149.92578125 52.08984375 C152.64342011 53.28232935 154.76805481 54.88371541 157.125 56.6875 C166.21064357 63.76952215 166.21064357 63.76952215 176.8125 67.6875 C181.94863533 66.5797061 184.27171586 63.06027673 187.16796875 58.84375 C188.16763672 57.18859375 188.16763672 57.18859375 189.1875 55.5 C189.86167969 54.3965625 190.53585937 53.293125 191.23046875 52.15625 C192.73678905 49.46948001 193.94918566 46.88839224 195 44 C201.4755895 44.91080831 206.78093148 47.68391829 210.84547424 52.81890106 C215.23989812 61.12072818 213.443064 72.73280442 213.21672726 81.86086321 C213.14124649 85.42132184 213.13462703 88.98192505 213.12042236 92.5430603 C213.08325682 99.27289493 212.98497654 106.00036509 212.86422849 112.72916257 C212.7296754 120.3951766 212.66401673 128.06130906 212.60388327 135.72821164 C212.47875409 151.4868396 212.26795667 167.24311387 212 183 C207.63254536 182.27006078 205.75746367 181.23690569 202.5625 178.125 C151.25402371 130.29250296 80.68339866 112.32119547 12 114 C-20.71587779 115.29850047 -54.26687379 123.74529475 -81.51953125 142.26953125 C-82.34054321 142.82241821 -83.16155518 143.37530518 -84.00744629 143.94494629 C-86.00764591 145.29273278 -88.00505978 146.6444465 -90 148 C-88.94461596 148.00238835 -87.88923191 148.00477671 -86.80186653 148.00723743 C-61.05888684 148.06617112 -35.31599971 148.14213904 -9.57312202 148.23571491 C2.87621079 148.28057879 15.3255156 148.32001495 27.77490234 148.34643555 C38.6325058 148.36949203 49.49001992 148.40297486 60.34755242 148.44870156 C66.09041718 148.47253097 71.83319404 148.49132688 77.57610703 148.49761391 C82.99502792 148.50371158 88.41372417 148.5238782 93.83256149 148.55427551 C95.80843031 148.56298135 97.78432857 148.56679404 99.76021576 148.56500816 C123.57860737 148.55029352 145.41423316 152.71909332 167 163 C167.68803711 163.32548828 168.37607422 163.65097656 169.08496094 163.98632812 C181.56352502 169.93182579 192.72239688 176.55417623 203.078125 185.765625 C208.22689823 189.70292217 212.97018479 191.42958407 219.4375 191.4375 C220.48808594 191.45683594 221.53867187 191.47617187 222.62109375 191.49609375 C230.39162672 190.35521781 236.0453784 185.62557295 242 180.8125 C258.4151169 167.96580853 276.89293159 159.43102857 296.875 153.625 C297.69379639 153.38628174 298.51259277 153.14756348 299.35620117 152.90161133 C313.16750905 149.09382727 326.53352879 148.69588515 340.75317383 148.68115234 C342.82403447 148.6718387 344.89489141 148.66166793 346.96574402 148.65071106 C352.55156508 148.62355888 358.13736113 148.60830575 363.7232306 148.59528303 C369.57419828 148.57958741 375.42511537 148.55281788 381.27604675 148.5272522 C392.33954287 148.48057783 403.40304863 148.443779 414.46659249 148.41057932 C427.06886214 148.37227755 439.67108084 148.32288861 452.27330744 148.27259517 C478.18216714 148.1694441 504.0910596 148.08012926 530 148 C528.26201504 146.72026104 526.52184077 145.44349502 524.78076172 144.16796875 C523.81194061 143.45664795 522.84311951 142.74532715 521.84494019 142.01245117 C476.98227919 110.2775433 414.45923366 109.32819601 362.33984375 118.19311523 C322.88445304 125.35842319 284.53797115 138.5841056 253 164 C252.0821875 164.72703125 251.164375 165.4540625 250.21875 166.203125 C246.3703553 169.29481288 242.58787 172.42687905 238.97265625 175.7890625 C238.47515869 176.25127197 237.97766113 176.71348145 237.46508789 177.18969727 C236.07285086 178.49423798 234.69232971 179.8112491 233.3125 181.12890625 C231 183 231 183 228 183 C227.69574545 166.22321045 227.46680211 149.44732115 227.32644176 132.66843605 C227.25952413 124.87681252 227.16837349 117.08690703 227.01928711 109.29638672 C226.88933825 102.50263552 226.80575875 95.71012863 226.77684957 88.91516912 C226.75995823 85.31946821 226.72055058 81.72732535 226.62550926 78.13277054 C226.02617165 54.56754894 226.02617165 54.56754894 230.80484009 48.99676514 C235.2110089 45.05373378 240.15375111 42.8393034 246 42 C246.21914063 42.60585938 246.43828125 43.21171875 246.6640625 43.8359375 C249.96999813 52.57113327 253.75368352 61.95123481 262 67 C267.91961094 68.27677883 272.06231111 65.8177808 277.08203125 62.9375 C281.22431462 60.1870682 284.90827574 56.99471343 288.58984375 53.66015625 C291 52 291 52 293.08203125 52.05078125 C295.29976759 53.14835748 296.90132522 54.48258233 298.75 56.125 C301.89138337 58.53030276 302.74594091 58.98770682 306.875 59.1875 C317.12307457 56.84107197 325.6423033 50.67850967 331.37890625 41.88671875 C336.34376056 32.45166352 337.03498802 22.28892225 337.00927734 11.78881836 C337.00621582 10.5385083 337.0031543 9.28819824 337 8 C344.65941501 7.17743466 352.31939037 6.36023616 359.97973633 5.54638672 C362.57361133 5.27021447 365.16736626 4.99291169 367.76098633 4.71435547 C383.92562141 2.97918635 400.08503258 1.42942177 416.2973175 0.21476746 C419.90281153 -0.07174151 423.50218263 -0.41538993 427.10163879 -0.76925659 C432.63464567 -1.16777853 436.4971719 -1.1986605 440.93359375 2.33984375 C443.11446962 5.16276948 444.95354912 7.9636623 446.75732422 11.02783203 C448.99638115 14.58129016 451.74489076 17.72298563 454.4375 20.9375 C455.55438487 22.30020021 456.66898274 23.66477819 457.78125 25.03125 C458.59529297 26.03091797 458.59529297 26.03091797 459.42578125 27.05078125 C461.79690224 29.98673503 464.11811246 32.96063141 466.4375 35.9375 C475.07614257 47.00144266 484.07548443 57.77648151 493.16796875 68.46899414 C495.98285235 71.78304071 498.75482339 75.12804856 501.5 78.5 C506.58175677 84.73916756 511.78894106 90.86891962 517 97 C522.19219022 103.10888035 527.38123581 109.21510641 532.4375 115.4375 C535.84476619 119.62825521 539.34136913 123.72886795 542.875 127.8125 C547.86059256 133.59012211 552.64991404 139.49211182 557.3046875 145.5390625 C559.1341677 147.91349425 561.01578413 150.22965493 562.9453125 152.5234375 C563.41630371 153.09698975 563.88729492 153.67054199 564.37255859 154.26147461 C565.66899086 155.83893075 566.98239898 157.40239142 568.296875 158.96484375 C570 162 570 162 569.953125 165.75390625 C569 169 569 169 566 171 C564.05037057 171.25135702 564.05037057 171.25135702 561.78961754 171.25333309 C560.92676278 171.25894849 560.06390801 171.26456388 559.17490613 171.27034944 C557.75213879 171.2643778 557.75213879 171.2643778 556.30062866 171.25828552 C554.78956887 171.26379908 554.78956887 171.26379908 553.24798262 171.26942402 C549.8558634 171.27944266 546.46390688 171.27524537 543.07177734 171.27124023 C540.64574509 171.27562538 538.21971433 171.28092676 535.79368591 171.28707886 C530.55866321 171.29860176 525.3236683 171.30423249 520.08863449 171.30496025 C512.50110964 171.30628659 504.9136585 171.3214067 497.32615967 171.34045542 C484.99186298 171.37132164 472.65756441 171.3954704 460.32324219 171.41333008 C459.58473489 171.41440276 458.84622759 171.41547544 458.08534129 171.41658062 C449.86335334 171.42837705 441.64136463 171.43858355 433.41937256 171.44702148 C430.44689939 171.45009483 427.47442625 171.45318375 424.50195312 171.45629883 C423.76859125 171.45706417 423.03522938 171.45782951 422.27964441 171.45861804 C410.00863201 171.47174448 397.73767245 171.49645195 385.46669924 171.53004223 C377.90968896 171.55023682 370.35279214 171.56063486 362.79575469 171.55805302 C356.98442253 171.55688613 351.17320501 171.57116181 345.36190987 171.59086227 C342.99214505 171.59642525 340.62236186 171.59698106 338.2525959 171.59192467 C311.36409001 171.54060715 279.92240342 175.14400679 259 194 C256.54601623 196.76461463 254.24869234 199.60963839 251.96484375 202.515625 C245.54743423 210.62988435 237.38526773 213.06656044 227.3125 214.5390625 C214.2534679 215.70893413 200.90640219 214.98318963 190 207 C187.46255727 204.43908658 185.23458172 201.64461534 182.99438477 198.82446289 C169.56502646 182.02391907 144.20051055 174.96306351 123.67420912 172.2756412 C114.61008988 171.34136695 105.44590458 171.59876241 96.34619141 171.63110352 C93.91655814 171.62863032 91.48692594 171.62478668 89.05729675 171.61968994 C83.19090759 171.61033576 77.32463205 171.61407982 71.45824493 171.62291259 C64.61726555 171.6320293 57.77636374 171.62068187 50.93539684 171.60731315 C38.7342771 171.58364426 26.53317285 171.57019062 14.33203125 171.56616211 C13.60457767 171.56591724 12.87712409 171.56567237 12.12762646 171.56542008 C3.99351093 171.56286867 -4.14060341 171.56231076 -12.27471924 171.56335449 C-15.23555501 171.56368763 -18.19639078 171.56397298 -21.15722656 171.56420898 C-22.25342247 171.56430317 -22.25342247 171.56430317 -23.37176375 171.56439925 C-35.5494004 171.56500364 -47.72696537 171.55015035 -59.90457213 171.52337593 C-67.40354802 171.50757466 -74.90229253 171.50530842 -82.40127088 171.52050995 C-88.13281219 171.53107253 -93.86417544 171.52131138 -99.59569359 171.50395203 C-101.94836168 171.500213 -104.30105203 171.5033705 -106.65369987 171.51382256 C-109.85715325 171.52711087 -113.05961833 171.51605464 -116.26303101 171.49879456 C-117.20016571 171.50860133 -118.13730042 171.51840811 -119.10283315 171.52851206 C-125.36884768 171.4583608 -125.36884768 171.4583608 -128.56559181 169.13679409 C-130 167 -130 167 -130.6875 164.3125 C-129.60875427 159.11490695 -126.41470414 155.95916303 -123 152 C-122.13287817 150.97369962 -121.26705562 149.94630047 -120.40234375 148.91796875 C-118.52637243 146.69071195 -116.64250909 144.47045851 -114.75390625 142.25390625 C-112.31821908 139.38745161 -109.9327786 136.48340594 -107.5625 133.5625 C-103.60723975 128.70156299 -99.54026529 123.9459244 -95.44824219 119.20043945 C-92.34573369 115.59454054 -89.30541477 111.94805175 -86.3125 108.25 C-83.46541499 104.7411601 -80.54187448 101.34133363 -77.5 98 C-73.27584052 93.35415162 -69.30107468 88.54310192 -65.35302734 83.66210938 C-63.81416884 81.77171805 -62.26165405 79.89307293 -60.70703125 78.015625 C-53.84168093 69.72413911 -47.0657154 61.37774008 -40.45996094 52.87792969 C-38.8641521 50.82526053 -37.26422982 48.77583554 -35.6640625 46.7265625 C-28.74501485 37.8573214 -21.88072268 28.94786597 -15.05859375 20.00390625 C-13.05765791 17.38135732 -11.05028688 14.76400153 -9.03515625 12.15234375 C-8.57399414 11.55462158 -8.11283203 10.95689941 -7.63769531 10.34106445 C-6.40115625 8.7398056 -5.16351133 7.1394009 -3.92578125 5.5390625 C-2.55820043 3.73596405 -1.25531992 1.88297988 0 0 Z " fill="#112E46" transform="translate(130,476)"/>
<path d="M0 0 C1.73168945 1.62573242 1.73168945 1.62573242 3.30078125 3.66796875 C6.83611637 7.95794173 10.70284727 11.06723661 15.1875 14.3125 C30.80899964 25.95961919 44.42595061 38.81889669 54 56 C54.58394531 57.0209375 55.16789062 58.041875 55.76953125 59.09375 C66.91571507 79.82615511 73.26499496 104.47983875 74 128 C74.0515625 129.27875 74.103125 130.5575 74.15625 131.875 C74.70789217 151.92868057 71.34186044 171.72694403 66 191 C65.70947754 192.0832959 65.70947754 192.0832959 65.41308594 193.18847656 C61.08217904 208.95121894 53.28659062 223.44439497 46 238 C45.6071582 238.78584473 45.21431641 239.57168945 44.80957031 240.38134766 C44.54241211 240.91550293 44.27525391 241.4496582 44 242 C39.36563085 241.52688455 37.38747266 239.87135361 34.1640625 236.58984375 C32.81441406 235.22762695 32.81441406 235.22762695 31.4375 233.83789062 C30.49995921 232.8711333 29.56245944 231.9043362 28.625 230.9375 C27.70460938 230.00744141 26.78421875 229.07738281 25.8359375 228.11914062 C20.70156313 222.90041582 15.72751433 217.58978837 11 212 C10.4740625 211.3810083 9.948125 210.7620166 9.40625 210.12426758 C-10.9977437 185.90082259 -26.78834304 158.73196049 -35 128 C-35.21317871 127.20513184 -35.42635742 126.41026367 -35.64599609 125.59130859 C-41.65151697 101.95498814 -41.88880856 73.45138361 -35 50 C-34.81808105 49.33887207 -34.63616211 48.67774414 -34.44873047 47.99658203 C-30.18542452 32.69211375 -23.05681975 19.23176967 -13 7 C-12.39542969 6.25492188 -11.79085937 5.50984375 -11.16796875 4.7421875 C-5.75414539 -1.76493838 -5.75414539 -1.76493838 0 0 Z " fill="#112E46" transform="translate(160,231)"/>
<path d="M0 0 C11.53699059 3.86338548 18.74471888 18.95777357 23.8371582 29.15795898 C41.13074596 65.3496942 40.0930311 106.81806425 27.09863281 144.27294922 C23.62540424 153.83897863 19.35858496 162.89616472 14.54296875 171.8515625 C14.07769775 172.73787354 14.07769775 172.73787354 13.60302734 173.64208984 C5.38529041 189.23884174 -5.78848117 202.73038085 -17.45703125 215.8515625 C-17.90369141 216.35606934 -18.35035156 216.86057617 -18.81054688 217.38037109 C-21.45701476 220.35715737 -24.14690232 223.28934072 -26.88232422 226.18457031 C-28.03155752 227.40115404 -29.17572869 228.62252542 -30.31689453 229.84667969 C-32.30510771 231.96919859 -34.31545624 234.06850231 -36.33203125 236.1640625 C-36.96278564 236.84138428 -37.59354004 237.51870605 -38.2434082 238.21655273 C-38.84757568 238.83473877 -39.45174316 239.4529248 -40.07421875 240.08984375 C-40.60644043 240.64712158 -41.13866211 241.20439941 -41.68701172 241.77856445 C-43.45703125 242.8515625 -43.45703125 242.8515625 -45.97338867 242.85766602 C-49.413181 241.46423397 -49.99176861 239.83523741 -51.578125 236.515625 C-52.11816162 235.39865234 -52.65819824 234.28167969 -53.21459961 233.13085938 C-53.77637166 231.91358713 -54.33630927 230.69546683 -54.89453125 229.4765625 C-55.18216339 228.86143799 -55.46979553 228.24631348 -55.7661438 227.61254883 C-68.79460117 199.72973618 -75.925829 168.57762877 -75.76953125 137.7890625 C-75.7673761 137.02254364 -75.76522095 136.25602478 -75.76300049 135.46627808 C-75.58872663 96.7235875 -64.24123102 57.88834591 -36.45703125 29.8515625 C-35.791875 29.13742187 -35.12671875 28.42328125 -34.44140625 27.6875 C-30.14382962 23.15518179 -25.37724057 19.39120029 -20.39746094 15.64770508 C-14.6255453 11.28847842 -8.5449191 6.69078135 -3.99609375 1.03515625 C-2.45703125 -0.1484375 -2.45703125 -0.1484375 0 0 Z " fill="#112E46" transform="translate(543.45703125,230.1484375)"/>
<path d="M0 0 C6.38159394 4.63568616 10.29106752 10.82716385 12.0703125 18.50390625 C13.2523478 30.27601292 11.96414583 40.45531711 4.8828125 50.25390625 C-2.94538072 59.58111519 -14.57227917 67.34525921 -26.90478516 68.72485352 C-40.29946264 69.47968638 -51.29993781 67.18590454 -61.9296875 58.50390625 C-68.26265605 52.36494549 -71.526522 45.94664052 -72.1796875 37.12890625 C-71.79272324 31.51792444 -70.0602457 27.83231214 -66.4296875 23.56640625 C-63.9296875 21.50390625 -63.9296875 21.50390625 -60.9296875 21.50390625 C-60.77113281 22.07238281 -60.61257813 22.64085937 -60.44921875 23.2265625 C-57.5789206 32.72550499 -53.90944898 37.40902663 -45.234375 42.33984375 C-40.17313974 44.89619647 -35.49919518 45.11358608 -29.9296875 44.50390625 C-26.23363645 43.25121781 -23.07155723 41.67369455 -20.33203125 38.8671875 C-18.9296875 37.50390625 -18.9296875 37.50390625 -16.9296875 37.50390625 C-16.6615625 36.96765625 -16.3934375 36.43140625 -16.1171875 35.87890625 C-14.9296875 33.50390625 -14.9296875 33.50390625 -13.3046875 30.87890625 C-11.06817689 25.38928931 -10.96254512 20.46551114 -12.80859375 14.8125 C-15.4757302 8.90606911 -18.36598434 5.77667282 -23.9296875 2.50390625 C-23.6171875 0.6171875 -23.6171875 0.6171875 -22.9296875 -1.49609375 C-15.0144083 -6.2782416 -7.64490321 -4.674845 0 0 Z " fill="#112E46" transform="translate(470.9296875,141.49609375)"/>
<path d="M0 0 C0 1.32 0 2.64 0 4 C-1.64556566 5.03435556 -3.3170608 6.02763513 -5 7 C-9.58632712 11.69552539 -12.65704321 16.51763445 -13.16796875 23.1953125 C-12.86828185 29.56643399 -10.23933321 34.32181243 -6 39 C0.44741061 44.2392076 5.76728009 46.45264811 14.08984375 46.33203125 C21.94672051 45.43560907 27.39481665 40.33885241 32.3359375 34.4921875 C34.93137479 30.60512414 36.08826462 26.54917964 37 22 C37.99 22 38.98 22 40 22 C41.5703125 24.08203125 41.5703125 24.08203125 43.125 26.8125 C43.64320313 27.70582031 44.16140625 28.59914062 44.6953125 29.51953125 C47.55307668 34.95270566 48.0128563 40.39398749 46.3515625 46.30859375 C42.14596042 56.67881767 34.28708127 63.77286413 24.18359375 68.16796875 C13.13290363 72.37869683 -0.42231028 70.72442268 -11 66 C-14.62328039 63.96415967 -17.81308426 61.66214059 -21 59 C-21.72058594 58.40316406 -22.44117188 57.80632812 -23.18359375 57.19140625 C-30.67249183 50.38203011 -35.35602531 41.36875961 -36.23828125 31.2734375 C-36.48997192 21.44425451 -34.60963994 13.72411348 -28.25 6.0625 C-20.29323118 -2.11406907 -10.77818892 -4.85504006 0 0 Z " fill="#112E46" transform="translate(254,140)"/>
<path d="M0 0 C2.48486918 1.52298433 2.8705262 2.47008182 3.55737305 5.28125 C5.08779921 14.68159516 3.77766132 24.49967713 2.88305664 33.91796875 C2.68782233 35.99656823 2.50856099 38.07615335 2.33007812 40.15625 C0.25278818 63.15061751 0.25278818 63.15061751 -6 69 C-8.90295805 70.45147903 -10.77261779 70.37239025 -14 70 C-19.81626507 66.12248995 -22.37227615 61.83207834 -24.125 55.0625 C-26.97901602 40.64730046 -27.39995078 24.17830742 -20 11 C-14.49561645 3.33318005 -9.68701779 -0.93745333 0 0 Z " fill="#112E46" transform="translate(412,458)"/>
<path d="M0 0 C5.67392775 0.10507274 10.45962596 3.01470311 14.54296875 6.80859375 C23.17969456 17.46498467 23.77350092 33.59057911 22.55004883 46.61889648 C21.60730223 54.82844625 20.1672636 62.59187959 14.75 69.0625 C11.46957168 70.62815897 9.50132754 70.57318805 5.96484375 70.125 C3.25094629 69.0890789 1.91340392 67.54629544 0 65.375 C-3.54209246 57.39214173 -3.99932467 47.90970877 -4.93530273 39.30566406 C-5.18645666 37.00953852 -5.45454305 34.71584435 -5.72460938 32.421875 C-8.53792171 7.85856551 -8.53792171 7.85856551 -4 1.375 C-3 0.375 -3 0.375 0 0 Z " fill="#112E46" transform="translate(292,457.625)"/>
<path d="M0 0 C3.625 0.75 3.625 0.75 6 2 C7.32144698 5.44344911 7.14492802 9.00521905 7.16796875 12.65234375 C7.1721582 13.30076233 7.17634766 13.94918091 7.18066406 14.61724854 C7.19045181 16.72406047 7.19045212 18.83066906 7.1875 20.9375 C7.18722809 21.65298004 7.18695618 22.36846008 7.18667603 23.10562134 C7.17082662 32.15816736 7.00053656 41.16517819 6.1875 50.1875 C6.11748779 51.0220874 6.04747559 51.8566748 5.9753418 52.71655273 C5.50513484 57.18375323 4.72145304 60.27943817 2 64 C-5.02458754 63.25357367 -9.14620209 59.96705319 -14 55 C-22.45217112 41.97597268 -21.04555753 26.92905695 -17.94921875 12.33203125 C-14.8550612 1.47064692 -11.23069091 -0.76900594 0 0 Z " fill="#112E46" transform="translate(266,460)"/>
<path d="M0 0 C6.12899419 4.56414461 6.78464908 11.79288404 8 19 C8.48784788 22.3344166 8.81934869 25.63536931 9 29 C9.04125 29.74765625 9.0825 30.4953125 9.125 31.265625 C9.39855044 41.04505326 7.8453195 48.75110157 1 56 C-4.46797761 61.217883 -7.23968111 63.14370961 -15 63 C-17.69426794 54.3783426 -18.14571502 46.14084911 -18.09765625 37.15625 C-18.0962413 36.14655151 -18.09482635 35.13685303 -18.09336853 34.09655762 C-18.08780781 30.89767389 -18.0752627 27.69886228 -18.0625 24.5 C-18.05747992 22.32031352 -18.0529179 20.14062593 -18.04882812 17.9609375 C-18.03785128 12.64060074 -18.02115268 7.32030552 -18 2 C-5.88696782 -1.08604406 -5.88696782 -1.08604406 0 0 Z " fill="#112E46" transform="translate(447,460)"/>
<path d="M0 0 C1.38671875 1.5390625 1.38671875 1.5390625 2.6875 3.625 C3.34298828 4.63433594 3.34298828 4.63433594 4.01171875 5.6640625 C5.29271479 8.69187133 5.35079092 10.73145399 5 14 C3.6875 16.9921875 3.6875 16.9921875 2 19.875 C1.443125 20.84179688 0.88625 21.80859375 0.3125 22.8046875 C-0.3371875 23.89136719 -0.3371875 23.89136719 -1 25 C-1.99 25 -2.98 25 -4 25 C-4.84761822 23.29870914 -5.6774868 21.58856916 -6.5 19.875 C-6.9640625 18.92367187 -7.428125 17.97234375 -7.90625 16.9921875 C-9.11283297 13.69132122 -9.39822555 11.48564482 -9 8 C-7.79296875 5.6640625 -7.79296875 5.6640625 -6.1875 3.625 C-5.66542969 2.93664062 -5.14335937 2.24828125 -4.60546875 1.5390625 C-3 0 -3 0 0 0 Z " fill="#112E46" transform="translate(353,217)"/>
</svg>
